<svg width="24" height="24" viewBox="0 0 24 24" fill="none" xmlns="http://www.w3.org/2000/svg">
<path d="M22 12.0001C22 17.5101 17.51 22.0001 12 22.0001C6.48997 22.0001 1.99997 17.5101 1.99997 12.0001C1.99997 6.49006 6.48997 2.00006 12 2.00006C17.51 2.00006 22 6.49006 22 12.0001ZM11.47 9.21006L7.93997 12.7401C7.78997 12.8901 7.71997 13.0801 7.71997 13.2701C7.71997 13.4601 7.78997 13.6501 7.93997 13.8001C8.22997 14.0901 8.70997 14.0901 8.99997 13.8001L12 10.8001L15 13.8001C15.29 14.0901 15.77 14.0901 16.06 13.8001C16.35 13.5101 16.35 13.0301 16.06 12.7401L12.53 9.21006C12.24 8.91006 11.76 8.91006 11.47 9.21006Z" fill="white"/>
</svg>
