<svg width="30" height="30" viewBox="0 0 30 30" fill="none" xmlns="http://www.w3.org/2000/svg">
<path d="M14.9998 -4.57764e-05C6.73482 -4.57764e-05 -0.000183105 6.73495 -0.000183105 15C-0.000183105 23.265 6.73482 30 14.9998 30C23.2648 30 29.9998 23.265 29.9998 15C29.9998 6.73495 23.2648 -4.57764e-05 14.9998 -4.57764e-05ZM20.0398 18.45C20.4748 18.885 20.4748 19.605 20.0398 20.04C19.8148 20.265 19.5298 20.37 19.2448 20.37C18.9598 20.37 18.6748 20.265 18.4498 20.04L14.9998 16.59L11.5498 20.04C11.3248 20.265 11.0398 20.37 10.7548 20.37C10.4698 20.37 10.1848 20.265 9.95982 20.04C9.52482 19.605 9.52482 18.885 9.95982 18.45L13.4098 15L9.95982 11.55C9.52482 11.115 9.52482 10.395 9.95982 9.95996C10.3948 9.52495 11.1148 9.52495 11.5498 9.95996L14.9998 13.41L18.4498 9.95996C18.8848 9.52495 19.6048 9.52495 20.0398 9.95996C20.4748 10.395 20.4748 11.115 20.0398 11.55L16.5898 15L20.0398 18.45Z" fill="#FAFAFA"/>
</svg>
