<svg width="36" height="36" viewBox="0 0 36 36" fill="none" xmlns="http://www.w3.org/2000/svg">
<path d="M18 33C9.735 33 3 26.265 3 18C3 9.735 9.735 3 18 3C26.265 3 33 9.735 33 18C33 26.265 26.265 33 18 33ZM16.875 24C16.875 24.615 17.385 25.125 18 25.125C18.615 25.125 19.125 24.615 19.125 24V16.5C19.125 15.885 18.615 15.375 18 15.375C17.385 15.375 16.875 15.885 16.875 16.5V24ZM19.38 11.43C19.305 11.235 19.2 11.085 19.065 10.935C18.915 10.8 18.75 10.695 18.57 10.62C18.39 10.545 18.195 10.5 18 10.5C17.805 10.5 17.61 10.545 17.43 10.62C17.25 10.695 17.085 10.8 16.935 10.935C16.8 11.085 16.695 11.235 16.62 11.43C16.545 11.61 16.5 11.805 16.5 12C16.5 12.195 16.545 12.39 16.62 12.57C16.695 12.75 16.8 12.915 16.935 13.065C17.085 13.2 17.25 13.305 17.43 13.38C17.79 13.53 18.21 13.53 18.57 13.38C18.75 13.305 18.915 13.2 19.065 13.065C19.2 12.915 19.305 12.75 19.38 12.57C19.455 12.39 19.5 12.195 19.5 12C19.5 11.805 19.455 11.61 19.38 11.43Z" fill="#F3FAFE"/>
</svg>
