<svg width="14" height="10" viewBox="0 0 14 10" fill="none" xmlns="http://www.w3.org/2000/svg">
<path fill-rule="evenodd" clip-rule="evenodd" d="M0.5 2.30769L0.500001 7.69231C0.500001 8.96685 1.47005 10 2.66667 10H11.3333C12.53 10 13.5 8.96685 13.5 7.69231V2.30769C13.5 1.03319 12.53 0 11.3333 0L2.5 0C1.5 0 0.5 1.26609 0.5 2.30769ZM11.3333 5C11.3333 5.63723 10.8483 6.15385 10.25 6.15385C9.65171 6.15385 9.16667 5.63723 9.16667 5C9.16667 4.36277 9.65171 3.84615 10.25 3.84615C10.8483 3.84615 11.3333 4.36277 11.3333 5Z" fill="black"/>
</svg>
