<svg width="47" height="46" viewBox="0 0 47 46" fill="none" xmlns="http://www.w3.org/2000/svg">
<g clip-path="url(#clip0_608_5043)">
<path d="M23.1304 46.0109C35.836 46.0109 46.1359 35.711 46.1359 23.0054C46.1359 10.2999 35.836 0 23.1304 0C10.4249 0 0.125 10.2999 0.125 23.0054C0.125 35.711 10.4249 46.0109 23.1304 46.0109Z" fill="url(#paint0_linear_608_5043)"/>
<path fill-rule="evenodd" clip-rule="evenodd" d="M28.5184 22.5569C28.4077 22.5569 28.2969 22.5145 28.2124 22.4301L22.4195 16.6375C22.2504 16.4684 22.2504 16.1942 22.4195 16.0254L26.6794 11.7652C26.8415 11.6026 27.1294 11.6028 27.2915 11.7652L33.0844 17.558C33.1656 17.6392 33.2113 17.7494 33.2113 17.8642C33.2113 17.979 33.1658 18.0893 33.0844 18.1704L28.8242 22.4303C28.7397 22.5147 28.6291 22.5569 28.5184 22.5569Z" fill="white"/>
<path fill-rule="evenodd" clip-rule="evenodd" d="M31.1241 23.2922C31.0093 23.2922 30.899 23.2467 30.8181 23.1652L29.1474 21.4945C28.9784 21.3254 28.9784 21.0512 29.1474 20.8821L31.5357 18.4938C31.7048 18.3249 31.9788 18.3249 32.1478 18.4938L33.8186 20.1645C33.8998 20.2457 33.9455 20.3559 33.9455 20.4707C33.9455 20.5855 33.9 20.6957 33.8186 20.7766L31.4303 23.1652C31.3491 23.2466 31.2388 23.2922 31.1241 23.2922Z" fill="white"/>
<path fill-rule="evenodd" clip-rule="evenodd" d="M32.5023 26.323C32.3916 26.323 32.2809 26.2807 32.1964 26.1961L29.9918 23.9915C29.9106 23.9105 29.8648 23.8001 29.8648 23.6856C29.8648 23.571 29.9103 23.4605 29.9918 23.3796L34.0337 19.3379C34.2028 19.169 34.4768 19.169 34.6459 19.3379L36.8505 21.5426C36.9316 21.6237 36.9774 21.7339 36.9774 21.8487C36.9774 21.9635 36.9319 22.0738 36.8505 22.1549L32.8085 26.1966C32.7237 26.281 32.613 26.323 32.5023 26.323Z" fill="white"/>
<path fill-rule="evenodd" clip-rule="evenodd" d="M22.3044 14.9156L19.5884 12.1996C19.4193 12.0306 19.4193 11.7565 19.5884 11.5875L20.8686 10.3073C20.9764 10.1997 21.1326 10.1565 21.2801 10.1936L25.8733 11.3465L22.3044 14.9156Z" fill="white"/>
<path fill-rule="evenodd" clip-rule="evenodd" d="M18.8084 23.708L23.5369 18.9796L26.1114 21.554L21.383 26.2827L18.8084 23.708Z" fill="white"/>
<path fill-rule="evenodd" clip-rule="evenodd" d="M13.1737 35.82C12.8019 35.82 12.376 35.6165 12.0351 35.2751L9.81907 33.059C9.46861 32.7085 9.26439 32.2735 9.27206 31.8947C9.27698 31.6586 9.36672 31.4485 9.52505 31.3029L17.3713 24.0821C17.542 23.9249 17.8062 23.9305 17.9706 24.0947L20.996 27.1202C21.16 27.2843 21.1655 27.5486 21.0084 27.7193L13.7853 35.5677C13.6354 35.7305 13.4184 35.82 13.1737 35.82Z" fill="white"/>
</g>
<defs>
<linearGradient id="paint0_linear_608_5043" x1="0.125" y1="23.0054" x2="46.1196" y2="23.0054" gradientUnits="userSpaceOnUse">
<stop stop-color="#26A9E0"/>
<stop offset="0.0901961" stop-color="#2297D3"/>
<stop offset="0.231373" stop-color="#1E84C6"/>
<stop offset="0.368627" stop-color="#1C79BE"/>
<stop offset="0.521569" stop-color="#1B75BB"/>
<stop offset="0.960784" stop-color="#2B388F"/>
<stop offset="1" stop-color="#2B388F"/>
</linearGradient>
<clipPath id="clip0_608_5043">
<rect width="46" height="46" fill="white" transform="translate(0.125)"/>
</clipPath>
</defs>
</svg>
