<svg width="26" height="26" viewBox="0 0 26 26" fill="none" xmlns="http://www.w3.org/2000/svg">
<g clip-path="url(#clip0_585_2349)">
<g opacity="0.5">
<path d="M16.7853 16.785C16.5853 16.9851 16.3933 17.1771 16.1689 17.3474C15.9445 17.5177 15.7985 17.6421 15.612 17.7746L19.489 21.6516C19.7758 21.9384 20.1648 22.0996 20.5704 22.0996C20.9761 22.0996 21.3651 21.9384 21.6519 21.6516C21.9387 21.3648 22.0999 20.9758 22.0999 20.5701C22.0999 20.1645 21.9387 19.7755 21.6519 19.4887L17.7749 15.6117C17.6451 15.7955 17.5072 15.9821 17.3477 16.1686C17.1882 16.3552 16.9854 16.585 16.7853 16.785Z" fill="white"/>
<path d="M4.34849 4.34829C2.86701 5.83216 1.99315 7.81584 1.89818 9.9105C1.80321 12.0052 2.49399 14.0598 3.8351 15.6716C5.17622 17.2835 7.07098 18.3363 9.14799 18.6238C11.225 18.9113 13.3345 18.4127 15.063 17.2257C15.2767 17.0819 15.4824 16.9266 15.6795 16.7607C15.8741 16.5985 16.0607 16.4282 16.2445 16.2443C16.4284 16.0605 16.6068 15.882 16.7609 15.6793C16.9268 15.4822 17.082 15.2765 17.2259 15.0628C18.4129 13.3343 18.9115 11.2248 18.624 9.1478C18.3365 7.07078 17.2837 5.17602 15.6718 3.83491C14.06 2.49379 12.0054 1.80302 9.9107 1.89799C7.81604 1.99296 5.83236 2.86682 4.34849 4.34829ZM14.2168 14.2166C13.4414 14.9919 12.4536 15.52 11.3781 15.7339C10.3027 15.9478 9.18792 15.838 8.17486 15.4184C7.16181 14.9988 6.29593 14.2882 5.68674 13.3765C5.07754 12.4647 4.75239 11.3928 4.75239 10.2963C4.75239 9.19978 5.07754 8.12788 5.68674 7.21616C6.29593 6.30443 7.16181 5.59383 8.17486 5.17421C9.18791 4.75459 10.3027 4.6448 11.3781 4.85872C12.4536 5.07264 13.4414 5.60066 14.2168 6.37602C15.2556 7.41624 15.839 8.82622 15.839 10.2963C15.839 11.7664 15.2556 13.1764 14.2168 14.2166Z" fill="white"/>
</g>
</g>
<defs>
<clipPath id="clip0_585_2349">
<rect width="26" height="26" fill="white"/>
</clipPath>
</defs>
</svg>
