<svg width="47" height="46" viewBox="0 0 47 46" fill="none" xmlns="http://www.w3.org/2000/svg">
<path d="M23.125 46C35.8276 46 46.125 35.7026 46.125 23C46.125 10.2974 35.8276 0 23.125 0C10.4224 0 0.125 10.2974 0.125 23C0.125 35.7026 10.4224 46 23.125 46Z" fill="#0098EA"/>
<path d="M30.9799 12.8313H15.2728C12.3848 12.8313 10.5543 15.9465 12.0073 18.465L21.7011 35.2671C22.3337 36.3642 23.919 36.3642 24.5515 35.2671L34.2474 18.465C35.6983 15.9506 33.8679 12.8313 30.9819 12.8313H30.9799ZM21.6932 30.2284L19.5821 26.1425L14.4881 17.0318C14.152 16.4487 14.5671 15.7014 15.2708 15.7014H21.6912V30.2304L21.6932 30.2284ZM31.7606 17.0298L26.6686 26.1445L24.5575 30.2284V15.6995H30.9779C31.6816 15.6995 32.0967 16.4467 31.7606 17.0298Z" fill="white"/>
</svg>
